<mxfile host="Electron" modified="2024-03-11T01:59:27.836Z" agent="Mozilla/5.0 (Windows NT 10.0; Win64; x64) AppleWebKit/537.36 (KHTML, like Gecko) draw.io/23.1.5 Chrome/120.0.6099.109 Electron/28.1.0 Safari/537.36" etag="RrrjnEKOXyFODIx6zaNM" version="23.1.5" type="device">
  <diagram name="Page-1" id="i6OAA_PkaHpAEaSdo9DT">
    <mxGraphModel dx="746" dy="899" grid="1" gridSize="10" guides="1" tooltips="1" connect="1" arrows="1" fold="1" page="1" pageScale="1" pageWidth="850" pageHeight="1100" math="0" shadow="0">
      <root>
        <mxCell id="0" />
        <mxCell id="1" parent="0" />
        <mxCell id="T7qprdBDYOJbE6tSfj1L-438" value="&lt;font style=&quot;font-size: 16px;&quot;&gt;&lt;b&gt;93&lt;/b&gt;&lt;/font&gt;" style="whiteSpace=wrap;html=1;aspect=fixed;fillColor=#d5e8d4;strokeColor=#356a16;strokeWidth=2;rounded=1;glass=0;absoluteArcSize=0;arcSize=10;" parent="1" vertex="1">
          <mxGeometry x="319" y="854" width="35" height="35" as="geometry" />
        </mxCell>
        <mxCell id="T7qprdBDYOJbE6tSfj1L-439" value="&lt;font style=&quot;font-size: 16px;&quot;&gt;3&lt;/font&gt;" style="whiteSpace=wrap;html=1;aspect=fixed;fillColor=#f8cecc;strokeColor=#D9635E;strokeWidth=2;rounded=1;glass=0;arcSize=10;" parent="1" vertex="1">
          <mxGeometry x="359" y="854" width="35" height="35" as="geometry" />
        </mxCell>
        <mxCell id="T7qprdBDYOJbE6tSfj1L-440" value="&lt;font style=&quot;font-size: 16px;&quot;&gt;3&lt;/font&gt;" style="whiteSpace=wrap;html=1;aspect=fixed;fillColor=#f8cecc;strokeColor=#D9635E;strokeWidth=2;rounded=1;glass=0;arcSize=10;" parent="1" vertex="1">
          <mxGeometry x="399" y="854" width="35" height="35" as="geometry" />
        </mxCell>
        <mxCell id="T7qprdBDYOJbE6tSfj1L-441" value="&lt;font style=&quot;font-size: 16px;&quot;&gt;3&lt;/font&gt;" style="whiteSpace=wrap;html=1;aspect=fixed;fillColor=#f8cecc;strokeColor=#D9635E;strokeWidth=2;rounded=1;glass=0;arcSize=10;" parent="1" vertex="1">
          <mxGeometry x="319" y="894" width="35" height="35" as="geometry" />
        </mxCell>
        <mxCell id="T7qprdBDYOJbE6tSfj1L-442" value="&lt;font style=&quot;font-size: 16px;&quot;&gt;&lt;b&gt;126&lt;/b&gt;&lt;/font&gt;" style="whiteSpace=wrap;html=1;aspect=fixed;fillColor=#d5e8d4;strokeColor=#356A16;strokeWidth=2;rounded=1;glass=0;arcSize=10;" parent="1" vertex="1">
          <mxGeometry x="359" y="894" width="35" height="35" as="geometry" />
        </mxCell>
        <mxCell id="T7qprdBDYOJbE6tSfj1L-443" value="&lt;font style=&quot;font-size: 16px;&quot;&gt;33&lt;/font&gt;" style="whiteSpace=wrap;html=1;aspect=fixed;fillColor=#f8cecc;strokeColor=#D9635E;strokeWidth=2;rounded=1;glass=0;arcSize=10;" parent="1" vertex="1">
          <mxGeometry x="399" y="894" width="35" height="35" as="geometry" />
        </mxCell>
        <mxCell id="T7qprdBDYOJbE6tSfj1L-444" value="&lt;font style=&quot;font-size: 16px;&quot;&gt;1&lt;/font&gt;" style="whiteSpace=wrap;html=1;aspect=fixed;fillColor=#f8cecc;strokeColor=#D9635E;strokeWidth=2;rounded=1;glass=0;arcSize=10;" parent="1" vertex="1">
          <mxGeometry x="319" y="934" width="35" height="35" as="geometry" />
        </mxCell>
        <mxCell id="T7qprdBDYOJbE6tSfj1L-445" value="&lt;font style=&quot;font-size: 16px;&quot;&gt;18&lt;/font&gt;" style="whiteSpace=wrap;html=1;aspect=fixed;fillColor=#f8cecc;strokeColor=#D9635E;strokeWidth=2;rounded=1;glass=0;arcSize=10;" parent="1" vertex="1">
          <mxGeometry x="359" y="934" width="35" height="35" as="geometry" />
        </mxCell>
        <mxCell id="T7qprdBDYOJbE6tSfj1L-446" value="&lt;font style=&quot;font-size: 16px;&quot;&gt;&lt;b&gt;132&lt;/b&gt;&lt;/font&gt;" style="whiteSpace=wrap;html=1;aspect=fixed;strokeWidth=2;fillColor=#d5e8d4;strokeColor=#356A16;rounded=1;glass=0;arcSize=10;" parent="1" vertex="1">
          <mxGeometry x="399" y="934" width="35" height="35" as="geometry" />
        </mxCell>
        <mxCell id="T7qprdBDYOJbE6tSfj1L-447" value="" style="group;rounded=1;glass=0;arcSize=10;" parent="1" vertex="1" connectable="0">
          <mxGeometry x="319" y="827" width="115" height="18" as="geometry" />
        </mxCell>
        <mxCell id="T7qprdBDYOJbE6tSfj1L-448" value="&lt;font style=&quot;font-size: 14px;&quot;&gt;0&lt;/font&gt;" style="text;html=1;strokeColor=#6c8ebf;fillColor=#dae8fc;align=center;verticalAlign=middle;whiteSpace=wrap;rounded=1;strokeWidth=2;glass=0;arcSize=10;" parent="T7qprdBDYOJbE6tSfj1L-447" vertex="1">
          <mxGeometry width="35" height="18" as="geometry" />
        </mxCell>
        <mxCell id="T7qprdBDYOJbE6tSfj1L-449" value="&lt;font style=&quot;font-size: 14px;&quot;&gt;1&lt;/font&gt;" style="text;html=1;strokeColor=#6c8ebf;fillColor=#dae8fc;align=center;verticalAlign=middle;whiteSpace=wrap;rounded=1;strokeWidth=2;glass=0;arcSize=10;" parent="T7qprdBDYOJbE6tSfj1L-447" vertex="1">
          <mxGeometry x="40" width="35" height="18" as="geometry" />
        </mxCell>
        <mxCell id="T7qprdBDYOJbE6tSfj1L-450" value="&lt;font style=&quot;font-size: 14px;&quot;&gt;2&lt;/font&gt;" style="text;html=1;strokeColor=#6c8ebf;fillColor=#dae8fc;align=center;verticalAlign=middle;whiteSpace=wrap;rounded=1;strokeWidth=2;glass=0;arcSize=10;" parent="T7qprdBDYOJbE6tSfj1L-447" vertex="1">
          <mxGeometry x="80" width="35" height="18" as="geometry" />
        </mxCell>
        <mxCell id="T7qprdBDYOJbE6tSfj1L-451" value="" style="group;rounded=1;glass=0;arcSize=10;" parent="1" vertex="1" connectable="0">
          <mxGeometry x="291" y="854" width="18" height="115" as="geometry" />
        </mxCell>
        <mxCell id="T7qprdBDYOJbE6tSfj1L-452" value="&lt;font style=&quot;font-size: 14px;&quot;&gt;0&lt;/font&gt;" style="text;html=1;strokeColor=#6c8ebf;fillColor=#dae8fc;align=center;verticalAlign=middle;whiteSpace=wrap;rounded=1;strokeWidth=2;glass=0;arcSize=10;" parent="T7qprdBDYOJbE6tSfj1L-451" vertex="1">
          <mxGeometry width="18" height="35" as="geometry" />
        </mxCell>
        <mxCell id="T7qprdBDYOJbE6tSfj1L-453" value="&lt;font style=&quot;font-size: 14px;&quot;&gt;1&lt;/font&gt;" style="text;html=1;strokeColor=#6c8ebf;fillColor=#dae8fc;align=center;verticalAlign=middle;whiteSpace=wrap;rounded=1;strokeWidth=2;glass=0;arcSize=10;" parent="T7qprdBDYOJbE6tSfj1L-451" vertex="1">
          <mxGeometry y="40" width="18" height="35" as="geometry" />
        </mxCell>
        <mxCell id="T7qprdBDYOJbE6tSfj1L-454" value="&lt;font style=&quot;font-size: 14px;&quot;&gt;2&lt;/font&gt;" style="text;html=1;strokeColor=#6c8ebf;fillColor=#dae8fc;align=center;verticalAlign=middle;whiteSpace=wrap;rounded=1;strokeWidth=2;glass=0;arcSize=10;" parent="T7qprdBDYOJbE6tSfj1L-451" vertex="1">
          <mxGeometry y="80" width="18" height="35" as="geometry" />
        </mxCell>
        <mxCell id="T7qprdBDYOJbE6tSfj1L-455" value="&lt;font style=&quot;font-size: 16px;&quot;&gt;&lt;b&gt;91&lt;/b&gt;&lt;/font&gt;" style="whiteSpace=wrap;html=1;aspect=fixed;fillColor=#d5e8d4;strokeColor=#356a16;strokeWidth=2;rounded=1;glass=0;absoluteArcSize=0;arcSize=10;" parent="1" vertex="1">
          <mxGeometry x="519" y="854" width="35" height="35" as="geometry" />
        </mxCell>
        <mxCell id="T7qprdBDYOJbE6tSfj1L-456" value="&lt;font style=&quot;font-size: 16px;&quot;&gt;0&lt;/font&gt;" style="whiteSpace=wrap;html=1;aspect=fixed;fillColor=#f8cecc;strokeColor=#D9635E;strokeWidth=2;rounded=1;glass=0;arcSize=10;" parent="1" vertex="1">
          <mxGeometry x="559" y="854" width="35" height="35" as="geometry" />
        </mxCell>
        <mxCell id="T7qprdBDYOJbE6tSfj1L-457" value="&lt;font style=&quot;font-size: 16px;&quot;&gt;3&lt;/font&gt;" style="whiteSpace=wrap;html=1;aspect=fixed;fillColor=#f8cecc;strokeColor=#D9635E;strokeWidth=2;rounded=1;glass=0;arcSize=10;" parent="1" vertex="1">
          <mxGeometry x="599" y="854" width="35" height="35" as="geometry" />
        </mxCell>
        <mxCell id="T7qprdBDYOJbE6tSfj1L-458" value="&lt;font style=&quot;font-size: 16px;&quot;&gt;5&lt;/font&gt;" style="whiteSpace=wrap;html=1;aspect=fixed;fillColor=#f8cecc;strokeColor=#D9635E;strokeWidth=2;rounded=1;glass=0;arcSize=10;" parent="1" vertex="1">
          <mxGeometry x="519" y="894" width="35" height="35" as="geometry" />
        </mxCell>
        <mxCell id="T7qprdBDYOJbE6tSfj1L-459" value="&lt;font style=&quot;font-size: 16px;&quot;&gt;&lt;b&gt;128&lt;/b&gt;&lt;/font&gt;" style="whiteSpace=wrap;html=1;aspect=fixed;fillColor=#d5e8d4;strokeColor=#356A16;strokeWidth=2;rounded=1;glass=0;arcSize=10;" parent="1" vertex="1">
          <mxGeometry x="559" y="894" width="35" height="35" as="geometry" />
        </mxCell>
        <mxCell id="T7qprdBDYOJbE6tSfj1L-460" value="&lt;font style=&quot;font-size: 16px;&quot;&gt;31&lt;/font&gt;" style="whiteSpace=wrap;html=1;aspect=fixed;fillColor=#f8cecc;strokeColor=#D9635E;strokeWidth=2;rounded=1;glass=0;arcSize=10;" parent="1" vertex="1">
          <mxGeometry x="599" y="894" width="35" height="35" as="geometry" />
        </mxCell>
        <mxCell id="T7qprdBDYOJbE6tSfj1L-461" value="&lt;font style=&quot;font-size: 16px;&quot;&gt;1&lt;/font&gt;" style="whiteSpace=wrap;html=1;aspect=fixed;fillColor=#f8cecc;strokeColor=#D9635E;strokeWidth=2;rounded=1;glass=0;arcSize=10;" parent="1" vertex="1">
          <mxGeometry x="519" y="934" width="35" height="35" as="geometry" />
        </mxCell>
        <mxCell id="T7qprdBDYOJbE6tSfj1L-462" value="&lt;font style=&quot;font-size: 16px;&quot;&gt;19&lt;/font&gt;" style="whiteSpace=wrap;html=1;aspect=fixed;fillColor=#f8cecc;strokeColor=#D9635E;strokeWidth=2;rounded=1;glass=0;arcSize=10;" parent="1" vertex="1">
          <mxGeometry x="559" y="934" width="35" height="35" as="geometry" />
        </mxCell>
        <mxCell id="T7qprdBDYOJbE6tSfj1L-463" value="&lt;font style=&quot;font-size: 16px;&quot;&gt;&lt;b&gt;134&lt;/b&gt;&lt;/font&gt;" style="whiteSpace=wrap;html=1;aspect=fixed;strokeWidth=2;fillColor=#d5e8d4;strokeColor=#356A16;rounded=1;glass=0;arcSize=10;" parent="1" vertex="1">
          <mxGeometry x="599" y="934" width="35" height="35" as="geometry" />
        </mxCell>
        <mxCell id="T7qprdBDYOJbE6tSfj1L-464" value="" style="group;rounded=1;glass=0;arcSize=10;" parent="1" vertex="1" connectable="0">
          <mxGeometry x="519" y="827" width="115" height="18" as="geometry" />
        </mxCell>
        <mxCell id="T7qprdBDYOJbE6tSfj1L-465" value="&lt;font style=&quot;font-size: 14px;&quot;&gt;0&lt;/font&gt;" style="text;html=1;strokeColor=#6c8ebf;fillColor=#dae8fc;align=center;verticalAlign=middle;whiteSpace=wrap;rounded=1;strokeWidth=2;glass=0;arcSize=10;" parent="T7qprdBDYOJbE6tSfj1L-464" vertex="1">
          <mxGeometry width="35" height="18" as="geometry" />
        </mxCell>
        <mxCell id="T7qprdBDYOJbE6tSfj1L-466" value="&lt;font style=&quot;font-size: 14px;&quot;&gt;1&lt;/font&gt;" style="text;html=1;strokeColor=#6c8ebf;fillColor=#dae8fc;align=center;verticalAlign=middle;whiteSpace=wrap;rounded=1;strokeWidth=2;glass=0;arcSize=10;" parent="T7qprdBDYOJbE6tSfj1L-464" vertex="1">
          <mxGeometry x="40" width="35" height="18" as="geometry" />
        </mxCell>
        <mxCell id="T7qprdBDYOJbE6tSfj1L-467" value="&lt;font style=&quot;font-size: 14px;&quot;&gt;2&lt;/font&gt;" style="text;html=1;strokeColor=#6c8ebf;fillColor=#dae8fc;align=center;verticalAlign=middle;whiteSpace=wrap;rounded=1;strokeWidth=2;glass=0;arcSize=10;" parent="T7qprdBDYOJbE6tSfj1L-464" vertex="1">
          <mxGeometry x="80" width="35" height="18" as="geometry" />
        </mxCell>
        <mxCell id="T7qprdBDYOJbE6tSfj1L-468" value="" style="group;rounded=1;glass=0;arcSize=10;" parent="1" vertex="1" connectable="0">
          <mxGeometry x="491" y="854" width="18" height="115" as="geometry" />
        </mxCell>
        <mxCell id="T7qprdBDYOJbE6tSfj1L-469" value="&lt;font style=&quot;font-size: 14px;&quot;&gt;0&lt;/font&gt;" style="text;html=1;strokeColor=#6c8ebf;fillColor=#dae8fc;align=center;verticalAlign=middle;whiteSpace=wrap;rounded=1;strokeWidth=2;glass=0;arcSize=10;" parent="T7qprdBDYOJbE6tSfj1L-468" vertex="1">
          <mxGeometry width="18" height="35" as="geometry" />
        </mxCell>
        <mxCell id="T7qprdBDYOJbE6tSfj1L-470" value="&lt;font style=&quot;font-size: 14px;&quot;&gt;1&lt;/font&gt;" style="text;html=1;strokeColor=#6c8ebf;fillColor=#dae8fc;align=center;verticalAlign=middle;whiteSpace=wrap;rounded=1;strokeWidth=2;glass=0;arcSize=10;" parent="T7qprdBDYOJbE6tSfj1L-468" vertex="1">
          <mxGeometry y="40" width="18" height="35" as="geometry" />
        </mxCell>
        <mxCell id="T7qprdBDYOJbE6tSfj1L-471" value="&lt;font style=&quot;font-size: 14px;&quot;&gt;2&lt;/font&gt;" style="text;html=1;strokeColor=#6c8ebf;fillColor=#dae8fc;align=center;verticalAlign=middle;whiteSpace=wrap;rounded=1;strokeWidth=2;glass=0;arcSize=10;" parent="T7qprdBDYOJbE6tSfj1L-468" vertex="1">
          <mxGeometry y="80" width="18" height="35" as="geometry" />
        </mxCell>
        <mxCell id="T7qprdBDYOJbE6tSfj1L-472" value="&lt;font style=&quot;font-size: 16px;&quot;&gt;&lt;b&gt;94&lt;/b&gt;&lt;/font&gt;" style="whiteSpace=wrap;html=1;aspect=fixed;fillColor=#d5e8d4;strokeColor=#356a16;strokeWidth=2;rounded=1;glass=0;absoluteArcSize=0;arcSize=10;" parent="1" vertex="1">
          <mxGeometry x="718" y="854" width="35" height="35" as="geometry" />
        </mxCell>
        <mxCell id="T7qprdBDYOJbE6tSfj1L-473" value="&lt;font style=&quot;font-size: 16px;&quot;&gt;14&lt;/font&gt;" style="whiteSpace=wrap;html=1;aspect=fixed;fillColor=#f8cecc;strokeColor=#D9635E;strokeWidth=2;rounded=1;glass=0;arcSize=10;" parent="1" vertex="1">
          <mxGeometry x="758" y="854" width="35" height="35" as="geometry" />
        </mxCell>
        <mxCell id="T7qprdBDYOJbE6tSfj1L-474" value="&lt;font style=&quot;font-size: 16px;&quot;&gt;17&lt;/font&gt;" style="whiteSpace=wrap;html=1;aspect=fixed;fillColor=#f8cecc;strokeColor=#D9635E;strokeWidth=2;rounded=1;glass=0;arcSize=10;" parent="1" vertex="1">
          <mxGeometry x="798" y="854" width="35" height="35" as="geometry" />
        </mxCell>
        <mxCell id="T7qprdBDYOJbE6tSfj1L-475" value="&lt;font style=&quot;font-size: 16px;&quot;&gt;1&lt;/font&gt;" style="whiteSpace=wrap;html=1;aspect=fixed;fillColor=#f8cecc;strokeColor=#D9635E;strokeWidth=2;rounded=1;glass=0;arcSize=10;" parent="1" vertex="1">
          <mxGeometry x="718" y="894" width="35" height="35" as="geometry" />
        </mxCell>
        <mxCell id="T7qprdBDYOJbE6tSfj1L-476" value="&lt;font style=&quot;font-size: 16px;&quot;&gt;&lt;b&gt;117&lt;/b&gt;&lt;/font&gt;" style="whiteSpace=wrap;html=1;aspect=fixed;fillColor=#d5e8d4;strokeColor=#356A16;strokeWidth=2;rounded=1;glass=0;arcSize=10;" parent="1" vertex="1">
          <mxGeometry x="758" y="894" width="35" height="35" as="geometry" />
        </mxCell>
        <mxCell id="T7qprdBDYOJbE6tSfj1L-477" value="&lt;font style=&quot;font-size: 16px;&quot;&gt;53&lt;/font&gt;" style="whiteSpace=wrap;html=1;aspect=fixed;fillColor=#f8cecc;strokeColor=#D9635E;strokeWidth=2;rounded=1;glass=0;arcSize=10;" parent="1" vertex="1">
          <mxGeometry x="798" y="894" width="35" height="35" as="geometry" />
        </mxCell>
        <mxCell id="T7qprdBDYOJbE6tSfj1L-478" value="&lt;font style=&quot;font-size: 16px;&quot;&gt;2&lt;/font&gt;" style="whiteSpace=wrap;html=1;aspect=fixed;fillColor=#f8cecc;strokeColor=#D9635E;strokeWidth=2;rounded=1;glass=0;arcSize=10;" parent="1" vertex="1">
          <mxGeometry x="718" y="934" width="35" height="35" as="geometry" />
        </mxCell>
        <mxCell id="T7qprdBDYOJbE6tSfj1L-479" value="&lt;font style=&quot;font-size: 16px;&quot;&gt;16&lt;/font&gt;" style="whiteSpace=wrap;html=1;aspect=fixed;fillColor=#f8cecc;strokeColor=#D9635E;strokeWidth=2;rounded=1;glass=0;arcSize=10;" parent="1" vertex="1">
          <mxGeometry x="758" y="934" width="35" height="35" as="geometry" />
        </mxCell>
        <mxCell id="T7qprdBDYOJbE6tSfj1L-480" value="&lt;font style=&quot;font-size: 16px;&quot;&gt;&lt;b&gt;98&lt;/b&gt;&lt;/font&gt;" style="whiteSpace=wrap;html=1;aspect=fixed;strokeWidth=2;fillColor=#d5e8d4;strokeColor=#356A16;rounded=1;glass=0;arcSize=10;" parent="1" vertex="1">
          <mxGeometry x="798" y="934" width="35" height="35" as="geometry" />
        </mxCell>
        <mxCell id="T7qprdBDYOJbE6tSfj1L-481" value="" style="group;rounded=1;glass=0;arcSize=10;" parent="1" vertex="1" connectable="0">
          <mxGeometry x="718" y="827" width="115" height="18" as="geometry" />
        </mxCell>
        <mxCell id="T7qprdBDYOJbE6tSfj1L-482" value="&lt;font style=&quot;font-size: 14px;&quot;&gt;0&lt;/font&gt;" style="text;html=1;strokeColor=#6c8ebf;fillColor=#dae8fc;align=center;verticalAlign=middle;whiteSpace=wrap;rounded=1;strokeWidth=2;glass=0;arcSize=10;" parent="T7qprdBDYOJbE6tSfj1L-481" vertex="1">
          <mxGeometry width="35" height="18" as="geometry" />
        </mxCell>
        <mxCell id="T7qprdBDYOJbE6tSfj1L-483" value="&lt;font style=&quot;font-size: 14px;&quot;&gt;1&lt;/font&gt;" style="text;html=1;strokeColor=#6c8ebf;fillColor=#dae8fc;align=center;verticalAlign=middle;whiteSpace=wrap;rounded=1;strokeWidth=2;glass=0;arcSize=10;" parent="T7qprdBDYOJbE6tSfj1L-481" vertex="1">
          <mxGeometry x="40" width="35" height="18" as="geometry" />
        </mxCell>
        <mxCell id="T7qprdBDYOJbE6tSfj1L-484" value="&lt;font style=&quot;font-size: 14px;&quot;&gt;2&lt;/font&gt;" style="text;html=1;strokeColor=#6c8ebf;fillColor=#dae8fc;align=center;verticalAlign=middle;whiteSpace=wrap;rounded=1;strokeWidth=2;glass=0;arcSize=10;" parent="T7qprdBDYOJbE6tSfj1L-481" vertex="1">
          <mxGeometry x="80" width="35" height="18" as="geometry" />
        </mxCell>
        <mxCell id="T7qprdBDYOJbE6tSfj1L-485" value="" style="group;rounded=1;glass=0;arcSize=10;" parent="1" vertex="1" connectable="0">
          <mxGeometry x="690" y="854" width="18" height="115" as="geometry" />
        </mxCell>
        <mxCell id="T7qprdBDYOJbE6tSfj1L-486" value="&lt;font style=&quot;font-size: 14px;&quot;&gt;0&lt;/font&gt;" style="text;html=1;strokeColor=#6c8ebf;fillColor=#dae8fc;align=center;verticalAlign=middle;whiteSpace=wrap;rounded=1;strokeWidth=2;glass=0;arcSize=10;" parent="T7qprdBDYOJbE6tSfj1L-485" vertex="1">
          <mxGeometry width="18" height="35" as="geometry" />
        </mxCell>
        <mxCell id="T7qprdBDYOJbE6tSfj1L-487" value="&lt;font style=&quot;font-size: 14px;&quot;&gt;1&lt;/font&gt;" style="text;html=1;strokeColor=#6c8ebf;fillColor=#dae8fc;align=center;verticalAlign=middle;whiteSpace=wrap;rounded=1;strokeWidth=2;glass=0;arcSize=10;" parent="T7qprdBDYOJbE6tSfj1L-485" vertex="1">
          <mxGeometry y="40" width="18" height="35" as="geometry" />
        </mxCell>
        <mxCell id="T7qprdBDYOJbE6tSfj1L-488" value="&lt;font style=&quot;font-size: 14px;&quot;&gt;2&lt;/font&gt;" style="text;html=1;strokeColor=#6c8ebf;fillColor=#dae8fc;align=center;verticalAlign=middle;whiteSpace=wrap;rounded=1;strokeWidth=2;glass=0;arcSize=10;" parent="T7qprdBDYOJbE6tSfj1L-485" vertex="1">
          <mxGeometry y="80" width="18" height="35" as="geometry" />
        </mxCell>
        <mxCell id="T7qprdBDYOJbE6tSfj1L-489" value="" style="endArrow=none;dashed=1;html=1;rounded=1;endSize=6;strokeWidth=1.5;strokeColor=#4D4D4D;" parent="1" edge="1">
          <mxGeometry width="50" height="50" relative="1" as="geometry">
            <mxPoint x="314" y="970" as="sourcePoint" />
            <mxPoint x="436" y="850" as="targetPoint" />
            <Array as="points">
              <mxPoint x="314" y="850" />
            </Array>
          </mxGeometry>
        </mxCell>
        <mxCell id="T7qprdBDYOJbE6tSfj1L-490" value="" style="endArrow=none;dashed=1;html=1;rounded=1;endSize=6;strokeWidth=1.5;strokeColor=#4D4D4D;" parent="1" edge="1">
          <mxGeometry width="50" height="50" relative="1" as="geometry">
            <mxPoint x="514" y="970" as="sourcePoint" />
            <mxPoint x="636" y="850" as="targetPoint" />
            <Array as="points">
              <mxPoint x="514" y="850" />
            </Array>
          </mxGeometry>
        </mxCell>
        <mxCell id="T7qprdBDYOJbE6tSfj1L-491" value="" style="endArrow=none;dashed=1;html=1;rounded=1;endSize=6;strokeWidth=1.5;strokeColor=#4D4D4D;" parent="1" edge="1">
          <mxGeometry width="50" height="50" relative="1" as="geometry">
            <mxPoint x="713" y="970" as="sourcePoint" />
            <mxPoint x="835.5" y="850" as="targetPoint" />
            <Array as="points">
              <mxPoint x="713.5" y="850" />
            </Array>
          </mxGeometry>
        </mxCell>
        <mxCell id="T7qprdBDYOJbE6tSfj1L-492" value="&lt;font style=&quot;font-size: 16px;&quot;&gt;&lt;b&gt;95&lt;/b&gt;&lt;/font&gt;" style="whiteSpace=wrap;html=1;aspect=fixed;fillColor=#d5e8d4;strokeColor=#356a16;strokeWidth=2;rounded=1;glass=0;absoluteArcSize=0;arcSize=10;" parent="1" vertex="1">
          <mxGeometry x="119" y="854" width="35" height="35" as="geometry" />
        </mxCell>
        <mxCell id="T7qprdBDYOJbE6tSfj1L-493" value="&lt;font style=&quot;font-size: 16px;&quot;&gt;12&lt;/font&gt;" style="whiteSpace=wrap;html=1;aspect=fixed;fillColor=#f8cecc;strokeColor=#D9635E;strokeWidth=2;rounded=1;glass=0;arcSize=10;" parent="1" vertex="1">
          <mxGeometry x="159" y="854" width="35" height="35" as="geometry" />
        </mxCell>
        <mxCell id="T7qprdBDYOJbE6tSfj1L-494" value="&lt;font style=&quot;font-size: 16px;&quot;&gt;13&lt;/font&gt;" style="whiteSpace=wrap;html=1;aspect=fixed;fillColor=#f8cecc;strokeColor=#D9635E;strokeWidth=2;rounded=1;glass=0;arcSize=10;" parent="1" vertex="1">
          <mxGeometry x="199" y="854" width="35" height="35" as="geometry" />
        </mxCell>
        <mxCell id="T7qprdBDYOJbE6tSfj1L-495" value="&lt;font style=&quot;font-size: 16px;&quot;&gt;1&lt;/font&gt;" style="whiteSpace=wrap;html=1;aspect=fixed;fillColor=#f8cecc;strokeColor=#D9635E;strokeWidth=2;rounded=1;glass=0;arcSize=10;" parent="1" vertex="1">
          <mxGeometry x="119" y="894" width="35" height="35" as="geometry" />
        </mxCell>
        <mxCell id="T7qprdBDYOJbE6tSfj1L-496" value="&lt;font style=&quot;font-size: 16px;&quot;&gt;&lt;b&gt;116&lt;/b&gt;&lt;/font&gt;" style="whiteSpace=wrap;html=1;aspect=fixed;fillColor=#d5e8d4;strokeColor=#356A16;strokeWidth=2;rounded=1;glass=0;arcSize=10;" parent="1" vertex="1">
          <mxGeometry x="159" y="894" width="35" height="35" as="geometry" />
        </mxCell>
        <mxCell id="T7qprdBDYOJbE6tSfj1L-497" value="&lt;font style=&quot;font-size: 16px;&quot;&gt;30&lt;/font&gt;" style="whiteSpace=wrap;html=1;aspect=fixed;fillColor=#f8cecc;strokeColor=#D9635E;strokeWidth=2;rounded=1;glass=0;arcSize=10;" parent="1" vertex="1">
          <mxGeometry x="199" y="894" width="35" height="35" as="geometry" />
        </mxCell>
        <mxCell id="T7qprdBDYOJbE6tSfj1L-498" value="&lt;font style=&quot;font-size: 16px;&quot;&gt;1&lt;/font&gt;" style="whiteSpace=wrap;html=1;aspect=fixed;fillColor=#f8cecc;strokeColor=#D9635E;strokeWidth=2;rounded=1;glass=0;arcSize=10;" parent="1" vertex="1">
          <mxGeometry x="119" y="934" width="35" height="35" as="geometry" />
        </mxCell>
        <mxCell id="T7qprdBDYOJbE6tSfj1L-499" value="&lt;font style=&quot;font-size: 16px;&quot;&gt;19&lt;/font&gt;" style="whiteSpace=wrap;html=1;aspect=fixed;fillColor=#f8cecc;strokeColor=#D9635E;strokeWidth=2;rounded=1;glass=0;arcSize=10;" parent="1" vertex="1">
          <mxGeometry x="159" y="934" width="35" height="35" as="geometry" />
        </mxCell>
        <mxCell id="T7qprdBDYOJbE6tSfj1L-500" value="&lt;font style=&quot;font-size: 16px;&quot;&gt;&lt;b&gt;125&lt;/b&gt;&lt;/font&gt;" style="whiteSpace=wrap;html=1;aspect=fixed;strokeWidth=2;fillColor=#d5e8d4;strokeColor=#356A16;rounded=1;glass=0;arcSize=10;" parent="1" vertex="1">
          <mxGeometry x="199" y="934" width="35" height="35" as="geometry" />
        </mxCell>
        <mxCell id="T7qprdBDYOJbE6tSfj1L-501" value="" style="group;rounded=1;glass=0;arcSize=10;" parent="1" vertex="1" connectable="0">
          <mxGeometry x="119" y="827" width="115" height="18" as="geometry" />
        </mxCell>
        <mxCell id="T7qprdBDYOJbE6tSfj1L-502" value="&lt;font style=&quot;font-size: 14px;&quot;&gt;0&lt;/font&gt;" style="text;html=1;strokeColor=#6c8ebf;fillColor=#dae8fc;align=center;verticalAlign=middle;whiteSpace=wrap;rounded=1;strokeWidth=2;glass=0;arcSize=10;" parent="T7qprdBDYOJbE6tSfj1L-501" vertex="1">
          <mxGeometry width="35" height="18" as="geometry" />
        </mxCell>
        <mxCell id="T7qprdBDYOJbE6tSfj1L-503" value="&lt;font style=&quot;font-size: 14px;&quot;&gt;1&lt;/font&gt;" style="text;html=1;strokeColor=#6c8ebf;fillColor=#dae8fc;align=center;verticalAlign=middle;whiteSpace=wrap;rounded=1;strokeWidth=2;glass=0;arcSize=10;" parent="T7qprdBDYOJbE6tSfj1L-501" vertex="1">
          <mxGeometry x="40" width="35" height="18" as="geometry" />
        </mxCell>
        <mxCell id="T7qprdBDYOJbE6tSfj1L-504" value="&lt;font style=&quot;font-size: 14px;&quot;&gt;2&lt;/font&gt;" style="text;html=1;strokeColor=#6c8ebf;fillColor=#dae8fc;align=center;verticalAlign=middle;whiteSpace=wrap;rounded=1;strokeWidth=2;glass=0;arcSize=10;" parent="T7qprdBDYOJbE6tSfj1L-501" vertex="1">
          <mxGeometry x="80" width="35" height="18" as="geometry" />
        </mxCell>
        <mxCell id="T7qprdBDYOJbE6tSfj1L-505" value="" style="group;rounded=1;glass=0;arcSize=10;" parent="1" vertex="1" connectable="0">
          <mxGeometry x="91" y="854" width="18" height="115" as="geometry" />
        </mxCell>
        <mxCell id="T7qprdBDYOJbE6tSfj1L-506" value="&lt;font style=&quot;font-size: 14px;&quot;&gt;0&lt;/font&gt;" style="text;html=1;strokeColor=#6c8ebf;fillColor=#dae8fc;align=center;verticalAlign=middle;whiteSpace=wrap;rounded=1;strokeWidth=2;glass=0;arcSize=10;" parent="T7qprdBDYOJbE6tSfj1L-505" vertex="1">
          <mxGeometry width="18" height="35" as="geometry" />
        </mxCell>
        <mxCell id="T7qprdBDYOJbE6tSfj1L-507" value="&lt;font style=&quot;font-size: 14px;&quot;&gt;1&lt;/font&gt;" style="text;html=1;strokeColor=#6c8ebf;fillColor=#dae8fc;align=center;verticalAlign=middle;whiteSpace=wrap;rounded=1;strokeWidth=2;glass=0;arcSize=10;" parent="T7qprdBDYOJbE6tSfj1L-505" vertex="1">
          <mxGeometry y="40" width="18" height="35" as="geometry" />
        </mxCell>
        <mxCell id="T7qprdBDYOJbE6tSfj1L-508" value="&lt;font style=&quot;font-size: 14px;&quot;&gt;2&lt;/font&gt;" style="text;html=1;strokeColor=#6c8ebf;fillColor=#dae8fc;align=center;verticalAlign=middle;whiteSpace=wrap;rounded=1;strokeWidth=2;glass=0;arcSize=10;" parent="T7qprdBDYOJbE6tSfj1L-505" vertex="1">
          <mxGeometry y="80" width="18" height="35" as="geometry" />
        </mxCell>
        <mxCell id="T7qprdBDYOJbE6tSfj1L-509" value="" style="endArrow=none;dashed=1;html=1;rounded=1;endSize=6;strokeWidth=1.5;strokeColor=#4D4D4D;" parent="1" edge="1">
          <mxGeometry width="50" height="50" relative="1" as="geometry">
            <mxPoint x="114" y="970" as="sourcePoint" />
            <mxPoint x="236" y="850" as="targetPoint" />
            <Array as="points">
              <mxPoint x="114" y="850" />
            </Array>
          </mxGeometry>
        </mxCell>
        <mxCell id="T7qprdBDYOJbE6tSfj1L-510" value="&lt;font style=&quot;font-size: 16px;&quot;&gt;&lt;b&gt;94&lt;/b&gt;&lt;/font&gt;" style="whiteSpace=wrap;html=1;aspect=fixed;fillColor=#d5e8d4;strokeColor=#356a16;strokeWidth=2;rounded=1;glass=0;absoluteArcSize=0;arcSize=10;" parent="1" vertex="1">
          <mxGeometry x="319" y="1086" width="35" height="35" as="geometry" />
        </mxCell>
        <mxCell id="T7qprdBDYOJbE6tSfj1L-511" value="&lt;font style=&quot;font-size: 16px;&quot;&gt;4&lt;/font&gt;" style="whiteSpace=wrap;html=1;aspect=fixed;fillColor=#f8cecc;strokeColor=#D9635E;strokeWidth=2;rounded=1;glass=0;arcSize=10;" parent="1" vertex="1">
          <mxGeometry x="359" y="1086" width="35" height="35" as="geometry" />
        </mxCell>
        <mxCell id="T7qprdBDYOJbE6tSfj1L-512" value="&lt;font style=&quot;font-size: 16px;&quot;&gt;3&lt;/font&gt;" style="whiteSpace=wrap;html=1;aspect=fixed;fillColor=#f8cecc;strokeColor=#D9635E;strokeWidth=2;rounded=1;glass=0;arcSize=10;" parent="1" vertex="1">
          <mxGeometry x="399" y="1086" width="35" height="35" as="geometry" />
        </mxCell>
        <mxCell id="T7qprdBDYOJbE6tSfj1L-513" value="&lt;font style=&quot;font-size: 16px;&quot;&gt;2&lt;/font&gt;" style="whiteSpace=wrap;html=1;aspect=fixed;fillColor=#f8cecc;strokeColor=#D9635E;strokeWidth=2;rounded=1;glass=0;arcSize=10;" parent="1" vertex="1">
          <mxGeometry x="319" y="1126" width="35" height="35" as="geometry" />
        </mxCell>
        <mxCell id="T7qprdBDYOJbE6tSfj1L-514" value="&lt;font style=&quot;font-size: 16px;&quot;&gt;&lt;b&gt;122&lt;/b&gt;&lt;/font&gt;" style="whiteSpace=wrap;html=1;aspect=fixed;fillColor=#d5e8d4;strokeColor=#356A16;strokeWidth=2;rounded=1;glass=0;arcSize=10;" parent="1" vertex="1">
          <mxGeometry x="359" y="1126" width="35" height="35" as="geometry" />
        </mxCell>
        <mxCell id="T7qprdBDYOJbE6tSfj1L-515" value="&lt;font style=&quot;font-size: 16px;&quot;&gt;32&lt;/font&gt;" style="whiteSpace=wrap;html=1;aspect=fixed;fillColor=#f8cecc;strokeColor=#D9635E;strokeWidth=2;rounded=1;glass=0;arcSize=10;" parent="1" vertex="1">
          <mxGeometry x="399" y="1126" width="35" height="35" as="geometry" />
        </mxCell>
        <mxCell id="T7qprdBDYOJbE6tSfj1L-516" value="&lt;font style=&quot;font-size: 16px;&quot;&gt;1&lt;/font&gt;" style="whiteSpace=wrap;html=1;aspect=fixed;fillColor=#f8cecc;strokeColor=#D9635E;strokeWidth=2;rounded=1;glass=0;arcSize=10;" parent="1" vertex="1">
          <mxGeometry x="319" y="1166" width="35" height="35" as="geometry" />
        </mxCell>
        <mxCell id="T7qprdBDYOJbE6tSfj1L-517" value="&lt;span style=&quot;font-size: 16px;&quot;&gt;21&lt;/span&gt;" style="whiteSpace=wrap;html=1;aspect=fixed;fillColor=#f8cecc;strokeColor=#D9635E;strokeWidth=2;rounded=1;glass=0;arcSize=10;" parent="1" vertex="1">
          <mxGeometry x="359" y="1166" width="35" height="35" as="geometry" />
        </mxCell>
        <mxCell id="T7qprdBDYOJbE6tSfj1L-518" value="&lt;font style=&quot;font-size: 16px;&quot;&gt;&lt;b&gt;133&lt;/b&gt;&lt;/font&gt;" style="whiteSpace=wrap;html=1;aspect=fixed;strokeWidth=2;fillColor=#d5e8d4;strokeColor=#356A16;rounded=1;glass=0;arcSize=10;" parent="1" vertex="1">
          <mxGeometry x="399" y="1166" width="35" height="35" as="geometry" />
        </mxCell>
        <mxCell id="T7qprdBDYOJbE6tSfj1L-519" value="" style="group;rounded=1;glass=0;arcSize=10;" parent="1" vertex="1" connectable="0">
          <mxGeometry x="319" y="1059" width="115" height="18" as="geometry" />
        </mxCell>
        <mxCell id="T7qprdBDYOJbE6tSfj1L-520" value="&lt;font style=&quot;font-size: 14px;&quot;&gt;0&lt;/font&gt;" style="text;html=1;strokeColor=#6c8ebf;fillColor=#dae8fc;align=center;verticalAlign=middle;whiteSpace=wrap;rounded=1;strokeWidth=2;glass=0;arcSize=10;" parent="T7qprdBDYOJbE6tSfj1L-519" vertex="1">
          <mxGeometry width="35" height="18" as="geometry" />
        </mxCell>
        <mxCell id="T7qprdBDYOJbE6tSfj1L-521" value="&lt;font style=&quot;font-size: 14px;&quot;&gt;1&lt;/font&gt;" style="text;html=1;strokeColor=#6c8ebf;fillColor=#dae8fc;align=center;verticalAlign=middle;whiteSpace=wrap;rounded=1;strokeWidth=2;glass=0;arcSize=10;" parent="T7qprdBDYOJbE6tSfj1L-519" vertex="1">
          <mxGeometry x="40" width="35" height="18" as="geometry" />
        </mxCell>
        <mxCell id="T7qprdBDYOJbE6tSfj1L-522" value="&lt;font style=&quot;font-size: 14px;&quot;&gt;2&lt;/font&gt;" style="text;html=1;strokeColor=#6c8ebf;fillColor=#dae8fc;align=center;verticalAlign=middle;whiteSpace=wrap;rounded=1;strokeWidth=2;glass=0;arcSize=10;" parent="T7qprdBDYOJbE6tSfj1L-519" vertex="1">
          <mxGeometry x="80" width="35" height="18" as="geometry" />
        </mxCell>
        <mxCell id="T7qprdBDYOJbE6tSfj1L-523" value="" style="group;rounded=1;glass=0;arcSize=10;" parent="1" vertex="1" connectable="0">
          <mxGeometry x="291" y="1086" width="18" height="115" as="geometry" />
        </mxCell>
        <mxCell id="T7qprdBDYOJbE6tSfj1L-524" value="&lt;font style=&quot;font-size: 14px;&quot;&gt;0&lt;/font&gt;" style="text;html=1;strokeColor=#6c8ebf;fillColor=#dae8fc;align=center;verticalAlign=middle;whiteSpace=wrap;rounded=1;strokeWidth=2;glass=0;arcSize=10;" parent="T7qprdBDYOJbE6tSfj1L-523" vertex="1">
          <mxGeometry width="18" height="35" as="geometry" />
        </mxCell>
        <mxCell id="T7qprdBDYOJbE6tSfj1L-525" value="&lt;font style=&quot;font-size: 14px;&quot;&gt;1&lt;/font&gt;" style="text;html=1;strokeColor=#6c8ebf;fillColor=#dae8fc;align=center;verticalAlign=middle;whiteSpace=wrap;rounded=1;strokeWidth=2;glass=0;arcSize=10;" parent="T7qprdBDYOJbE6tSfj1L-523" vertex="1">
          <mxGeometry y="40" width="18" height="35" as="geometry" />
        </mxCell>
        <mxCell id="T7qprdBDYOJbE6tSfj1L-526" value="&lt;font style=&quot;font-size: 14px;&quot;&gt;2&lt;/font&gt;" style="text;html=1;strokeColor=#6c8ebf;fillColor=#dae8fc;align=center;verticalAlign=middle;whiteSpace=wrap;rounded=1;strokeWidth=2;glass=0;arcSize=10;" parent="T7qprdBDYOJbE6tSfj1L-523" vertex="1">
          <mxGeometry y="80" width="18" height="35" as="geometry" />
        </mxCell>
        <mxCell id="T7qprdBDYOJbE6tSfj1L-527" value="&lt;font style=&quot;font-size: 16px;&quot;&gt;&lt;b&gt;92&lt;/b&gt;&lt;/font&gt;" style="whiteSpace=wrap;html=1;aspect=fixed;fillColor=#d5e8d4;strokeColor=#356a16;strokeWidth=2;rounded=1;glass=0;absoluteArcSize=0;arcSize=10;" parent="1" vertex="1">
          <mxGeometry x="519" y="1086" width="35" height="35" as="geometry" />
        </mxCell>
        <mxCell id="T7qprdBDYOJbE6tSfj1L-528" value="&lt;font style=&quot;font-size: 16px;&quot;&gt;10&lt;/font&gt;" style="whiteSpace=wrap;html=1;aspect=fixed;fillColor=#f8cecc;strokeColor=#D9635E;strokeWidth=2;rounded=1;glass=0;arcSize=10;" parent="1" vertex="1">
          <mxGeometry x="559" y="1086" width="35" height="35" as="geometry" />
        </mxCell>
        <mxCell id="T7qprdBDYOJbE6tSfj1L-529" value="&lt;font style=&quot;font-size: 16px;&quot;&gt;8&lt;/font&gt;" style="whiteSpace=wrap;html=1;aspect=fixed;fillColor=#f8cecc;strokeColor=#D9635E;strokeWidth=2;rounded=1;glass=0;arcSize=10;" parent="1" vertex="1">
          <mxGeometry x="599" y="1086" width="35" height="35" as="geometry" />
        </mxCell>
        <mxCell id="T7qprdBDYOJbE6tSfj1L-530" value="&lt;font style=&quot;font-size: 16px;&quot;&gt;4&lt;/font&gt;" style="whiteSpace=wrap;html=1;aspect=fixed;fillColor=#f8cecc;strokeColor=#D9635E;strokeWidth=2;rounded=1;glass=0;arcSize=10;" parent="1" vertex="1">
          <mxGeometry x="519" y="1126" width="35" height="35" as="geometry" />
        </mxCell>
        <mxCell id="T7qprdBDYOJbE6tSfj1L-531" value="&lt;font style=&quot;font-size: 16px;&quot;&gt;&lt;b&gt;119&lt;/b&gt;&lt;/font&gt;" style="whiteSpace=wrap;html=1;aspect=fixed;fillColor=#d5e8d4;strokeColor=#356A16;strokeWidth=2;rounded=1;glass=0;arcSize=10;" parent="1" vertex="1">
          <mxGeometry x="559" y="1126" width="35" height="35" as="geometry" />
        </mxCell>
        <mxCell id="T7qprdBDYOJbE6tSfj1L-532" value="&lt;font style=&quot;font-size: 16px;&quot;&gt;42&lt;/font&gt;" style="whiteSpace=wrap;html=1;aspect=fixed;fillColor=#f8cecc;strokeColor=#D9635E;strokeWidth=2;rounded=1;glass=0;arcSize=10;" parent="1" vertex="1">
          <mxGeometry x="599" y="1126" width="35" height="35" as="geometry" />
        </mxCell>
        <mxCell id="T7qprdBDYOJbE6tSfj1L-533" value="&lt;font style=&quot;font-size: 16px;&quot;&gt;1&lt;/font&gt;" style="whiteSpace=wrap;html=1;aspect=fixed;fillColor=#f8cecc;strokeColor=#D9635E;strokeWidth=2;rounded=1;glass=0;arcSize=10;" parent="1" vertex="1">
          <mxGeometry x="519" y="1166" width="35" height="35" as="geometry" />
        </mxCell>
        <mxCell id="T7qprdBDYOJbE6tSfj1L-534" value="&lt;font style=&quot;font-size: 16px;&quot;&gt;18&lt;/font&gt;" style="whiteSpace=wrap;html=1;aspect=fixed;fillColor=#f8cecc;strokeColor=#D9635E;strokeWidth=2;rounded=1;glass=0;arcSize=10;" parent="1" vertex="1">
          <mxGeometry x="559" y="1166" width="35" height="35" as="geometry" />
        </mxCell>
        <mxCell id="T7qprdBDYOJbE6tSfj1L-535" value="&lt;font style=&quot;font-size: 16px;&quot;&gt;&lt;b&gt;118&lt;/b&gt;&lt;/font&gt;" style="whiteSpace=wrap;html=1;aspect=fixed;strokeWidth=2;fillColor=#d5e8d4;strokeColor=#356A16;rounded=1;glass=0;arcSize=10;" parent="1" vertex="1">
          <mxGeometry x="599" y="1166" width="35" height="35" as="geometry" />
        </mxCell>
        <mxCell id="T7qprdBDYOJbE6tSfj1L-536" value="" style="group;rounded=1;glass=0;arcSize=10;" parent="1" vertex="1" connectable="0">
          <mxGeometry x="519" y="1059" width="115" height="18" as="geometry" />
        </mxCell>
        <mxCell id="T7qprdBDYOJbE6tSfj1L-537" value="&lt;font style=&quot;font-size: 14px;&quot;&gt;0&lt;/font&gt;" style="text;html=1;strokeColor=#6c8ebf;fillColor=#dae8fc;align=center;verticalAlign=middle;whiteSpace=wrap;rounded=1;strokeWidth=2;glass=0;arcSize=10;" parent="T7qprdBDYOJbE6tSfj1L-536" vertex="1">
          <mxGeometry width="35" height="18" as="geometry" />
        </mxCell>
        <mxCell id="T7qprdBDYOJbE6tSfj1L-538" value="&lt;font style=&quot;font-size: 14px;&quot;&gt;1&lt;/font&gt;" style="text;html=1;strokeColor=#6c8ebf;fillColor=#dae8fc;align=center;verticalAlign=middle;whiteSpace=wrap;rounded=1;strokeWidth=2;glass=0;arcSize=10;" parent="T7qprdBDYOJbE6tSfj1L-536" vertex="1">
          <mxGeometry x="40" width="35" height="18" as="geometry" />
        </mxCell>
        <mxCell id="T7qprdBDYOJbE6tSfj1L-539" value="&lt;font style=&quot;font-size: 14px;&quot;&gt;2&lt;/font&gt;" style="text;html=1;strokeColor=#6c8ebf;fillColor=#dae8fc;align=center;verticalAlign=middle;whiteSpace=wrap;rounded=1;strokeWidth=2;glass=0;arcSize=10;" parent="T7qprdBDYOJbE6tSfj1L-536" vertex="1">
          <mxGeometry x="80" width="35" height="18" as="geometry" />
        </mxCell>
        <mxCell id="T7qprdBDYOJbE6tSfj1L-540" value="" style="group;rounded=1;glass=0;arcSize=10;" parent="1" vertex="1" connectable="0">
          <mxGeometry x="491" y="1086" width="18" height="115" as="geometry" />
        </mxCell>
        <mxCell id="T7qprdBDYOJbE6tSfj1L-541" value="&lt;font style=&quot;font-size: 14px;&quot;&gt;0&lt;/font&gt;" style="text;html=1;strokeColor=#6c8ebf;fillColor=#dae8fc;align=center;verticalAlign=middle;whiteSpace=wrap;rounded=1;strokeWidth=2;glass=0;arcSize=10;" parent="T7qprdBDYOJbE6tSfj1L-540" vertex="1">
          <mxGeometry width="18" height="35" as="geometry" />
        </mxCell>
        <mxCell id="T7qprdBDYOJbE6tSfj1L-542" value="&lt;font style=&quot;font-size: 14px;&quot;&gt;1&lt;/font&gt;" style="text;html=1;strokeColor=#6c8ebf;fillColor=#dae8fc;align=center;verticalAlign=middle;whiteSpace=wrap;rounded=1;strokeWidth=2;glass=0;arcSize=10;" parent="T7qprdBDYOJbE6tSfj1L-540" vertex="1">
          <mxGeometry y="40" width="18" height="35" as="geometry" />
        </mxCell>
        <mxCell id="T7qprdBDYOJbE6tSfj1L-543" value="&lt;font style=&quot;font-size: 14px;&quot;&gt;2&lt;/font&gt;" style="text;html=1;strokeColor=#6c8ebf;fillColor=#dae8fc;align=center;verticalAlign=middle;whiteSpace=wrap;rounded=1;strokeWidth=2;glass=0;arcSize=10;" parent="T7qprdBDYOJbE6tSfj1L-540" vertex="1">
          <mxGeometry y="80" width="18" height="35" as="geometry" />
        </mxCell>
        <mxCell id="T7qprdBDYOJbE6tSfj1L-544" value="" style="endArrow=none;dashed=1;html=1;rounded=1;endSize=6;strokeWidth=1.5;strokeColor=#4D4D4D;" parent="1" edge="1">
          <mxGeometry width="50" height="50" relative="1" as="geometry">
            <mxPoint x="314" y="1202" as="sourcePoint" />
            <mxPoint x="436" y="1082" as="targetPoint" />
            <Array as="points">
              <mxPoint x="314" y="1082" />
            </Array>
          </mxGeometry>
        </mxCell>
        <mxCell id="T7qprdBDYOJbE6tSfj1L-545" value="" style="endArrow=none;dashed=1;html=1;rounded=1;endSize=6;strokeWidth=1.5;strokeColor=#4D4D4D;" parent="1" edge="1">
          <mxGeometry width="50" height="50" relative="1" as="geometry">
            <mxPoint x="514" y="1202" as="sourcePoint" />
            <mxPoint x="636" y="1082" as="targetPoint" />
            <Array as="points">
              <mxPoint x="514" y="1082" />
            </Array>
          </mxGeometry>
        </mxCell>
        <mxCell id="T7qprdBDYOJbE6tSfj1L-546" value="&lt;font style=&quot;font-size: 16px;&quot;&gt;&lt;b&gt;86&lt;/b&gt;&lt;/font&gt;" style="whiteSpace=wrap;html=1;aspect=fixed;fillColor=#d5e8d4;strokeColor=#356a16;strokeWidth=2;rounded=1;glass=0;absoluteArcSize=0;arcSize=10;" parent="1" vertex="1">
          <mxGeometry x="119" y="1086" width="35" height="35" as="geometry" />
        </mxCell>
        <mxCell id="T7qprdBDYOJbE6tSfj1L-547" value="&lt;font style=&quot;font-size: 16px;&quot;&gt;7&lt;/font&gt;" style="whiteSpace=wrap;html=1;aspect=fixed;fillColor=#f8cecc;strokeColor=#D9635E;strokeWidth=2;rounded=1;glass=0;arcSize=10;" parent="1" vertex="1">
          <mxGeometry x="159" y="1086" width="35" height="35" as="geometry" />
        </mxCell>
        <mxCell id="T7qprdBDYOJbE6tSfj1L-548" value="&lt;font style=&quot;font-size: 16px;&quot;&gt;9&lt;/font&gt;" style="whiteSpace=wrap;html=1;aspect=fixed;fillColor=#f8cecc;strokeColor=#D9635E;strokeWidth=2;rounded=1;glass=0;arcSize=10;" parent="1" vertex="1">
          <mxGeometry x="199" y="1086" width="35" height="35" as="geometry" />
        </mxCell>
        <mxCell id="T7qprdBDYOJbE6tSfj1L-549" value="&lt;font style=&quot;font-size: 16px;&quot;&gt;9&lt;/font&gt;" style="whiteSpace=wrap;html=1;aspect=fixed;fillColor=#f8cecc;strokeColor=#D9635E;strokeWidth=2;rounded=1;glass=0;arcSize=10;" parent="1" vertex="1">
          <mxGeometry x="119" y="1126" width="35" height="35" as="geometry" />
        </mxCell>
        <mxCell id="T7qprdBDYOJbE6tSfj1L-550" value="&lt;font style=&quot;font-size: 16px;&quot;&gt;&lt;b&gt;132&lt;/b&gt;&lt;/font&gt;" style="whiteSpace=wrap;html=1;aspect=fixed;fillColor=#d5e8d4;strokeColor=#356A16;strokeWidth=2;rounded=1;glass=0;arcSize=10;" parent="1" vertex="1">
          <mxGeometry x="159" y="1126" width="35" height="35" as="geometry" />
        </mxCell>
        <mxCell id="T7qprdBDYOJbE6tSfj1L-551" value="&lt;font style=&quot;font-size: 16px;&quot;&gt;26&lt;/font&gt;" style="whiteSpace=wrap;html=1;aspect=fixed;fillColor=#f8cecc;strokeColor=#D9635E;strokeWidth=2;rounded=1;glass=0;arcSize=10;" parent="1" vertex="1">
          <mxGeometry x="199" y="1126" width="35" height="35" as="geometry" />
        </mxCell>
        <mxCell id="T7qprdBDYOJbE6tSfj1L-552" value="&lt;font style=&quot;font-size: 16px;&quot;&gt;2&lt;/font&gt;" style="whiteSpace=wrap;html=1;aspect=fixed;fillColor=#f8cecc;strokeColor=#D9635E;strokeWidth=2;rounded=1;glass=0;arcSize=10;" parent="1" vertex="1">
          <mxGeometry x="119" y="1166" width="35" height="35" as="geometry" />
        </mxCell>
        <mxCell id="T7qprdBDYOJbE6tSfj1L-553" value="&lt;font style=&quot;font-size: 16px;&quot;&gt;8&lt;/font&gt;" style="whiteSpace=wrap;html=1;aspect=fixed;fillColor=#f8cecc;strokeColor=#D9635E;strokeWidth=2;rounded=1;glass=0;arcSize=10;" parent="1" vertex="1">
          <mxGeometry x="159" y="1166" width="35" height="35" as="geometry" />
        </mxCell>
        <mxCell id="T7qprdBDYOJbE6tSfj1L-554" value="&lt;font style=&quot;font-size: 16px;&quot;&gt;&lt;b&gt;133&lt;/b&gt;&lt;/font&gt;" style="whiteSpace=wrap;html=1;aspect=fixed;strokeWidth=2;fillColor=#d5e8d4;strokeColor=#356A16;rounded=1;glass=0;arcSize=10;" parent="1" vertex="1">
          <mxGeometry x="199" y="1166" width="35" height="35" as="geometry" />
        </mxCell>
        <mxCell id="T7qprdBDYOJbE6tSfj1L-555" value="" style="group;rounded=1;glass=0;arcSize=10;" parent="1" vertex="1" connectable="0">
          <mxGeometry x="119" y="1059" width="115" height="18" as="geometry" />
        </mxCell>
        <mxCell id="T7qprdBDYOJbE6tSfj1L-556" value="&lt;font style=&quot;font-size: 14px;&quot;&gt;0&lt;/font&gt;" style="text;html=1;strokeColor=#6c8ebf;fillColor=#dae8fc;align=center;verticalAlign=middle;whiteSpace=wrap;rounded=1;strokeWidth=2;glass=0;arcSize=10;" parent="T7qprdBDYOJbE6tSfj1L-555" vertex="1">
          <mxGeometry width="35" height="18" as="geometry" />
        </mxCell>
        <mxCell id="T7qprdBDYOJbE6tSfj1L-557" value="&lt;font style=&quot;font-size: 14px;&quot;&gt;1&lt;/font&gt;" style="text;html=1;strokeColor=#6c8ebf;fillColor=#dae8fc;align=center;verticalAlign=middle;whiteSpace=wrap;rounded=1;strokeWidth=2;glass=0;arcSize=10;" parent="T7qprdBDYOJbE6tSfj1L-555" vertex="1">
          <mxGeometry x="40" width="35" height="18" as="geometry" />
        </mxCell>
        <mxCell id="T7qprdBDYOJbE6tSfj1L-558" value="&lt;font style=&quot;font-size: 14px;&quot;&gt;2&lt;/font&gt;" style="text;html=1;strokeColor=#6c8ebf;fillColor=#dae8fc;align=center;verticalAlign=middle;whiteSpace=wrap;rounded=1;strokeWidth=2;glass=0;arcSize=10;" parent="T7qprdBDYOJbE6tSfj1L-555" vertex="1">
          <mxGeometry x="80" width="35" height="18" as="geometry" />
        </mxCell>
        <mxCell id="T7qprdBDYOJbE6tSfj1L-559" value="" style="group;rounded=1;glass=0;arcSize=10;" parent="1" vertex="1" connectable="0">
          <mxGeometry x="91" y="1086" width="18" height="115" as="geometry" />
        </mxCell>
        <mxCell id="T7qprdBDYOJbE6tSfj1L-560" value="&lt;font style=&quot;font-size: 14px;&quot;&gt;0&lt;/font&gt;" style="text;html=1;strokeColor=#6c8ebf;fillColor=#dae8fc;align=center;verticalAlign=middle;whiteSpace=wrap;rounded=1;strokeWidth=2;glass=0;arcSize=10;" parent="T7qprdBDYOJbE6tSfj1L-559" vertex="1">
          <mxGeometry width="18" height="35" as="geometry" />
        </mxCell>
        <mxCell id="T7qprdBDYOJbE6tSfj1L-561" value="&lt;font style=&quot;font-size: 14px;&quot;&gt;1&lt;/font&gt;" style="text;html=1;strokeColor=#6c8ebf;fillColor=#dae8fc;align=center;verticalAlign=middle;whiteSpace=wrap;rounded=1;strokeWidth=2;glass=0;arcSize=10;" parent="T7qprdBDYOJbE6tSfj1L-559" vertex="1">
          <mxGeometry y="40" width="18" height="35" as="geometry" />
        </mxCell>
        <mxCell id="T7qprdBDYOJbE6tSfj1L-562" value="&lt;font style=&quot;font-size: 14px;&quot;&gt;2&lt;/font&gt;" style="text;html=1;strokeColor=#6c8ebf;fillColor=#dae8fc;align=center;verticalAlign=middle;whiteSpace=wrap;rounded=1;strokeWidth=2;glass=0;arcSize=10;" parent="T7qprdBDYOJbE6tSfj1L-559" vertex="1">
          <mxGeometry y="80" width="18" height="35" as="geometry" />
        </mxCell>
        <mxCell id="T7qprdBDYOJbE6tSfj1L-563" value="" style="endArrow=none;dashed=1;html=1;rounded=1;endSize=6;strokeWidth=1.5;strokeColor=#4D4D4D;" parent="1" edge="1">
          <mxGeometry width="50" height="50" relative="1" as="geometry">
            <mxPoint x="114" y="1202" as="sourcePoint" />
            <mxPoint x="236" y="1082" as="targetPoint" />
            <Array as="points">
              <mxPoint x="114" y="1082" />
            </Array>
          </mxGeometry>
        </mxCell>
        <mxCell id="T7qprdBDYOJbE6tSfj1L-564" value="&lt;b&gt;&lt;font style=&quot;font-size: 14px;&quot;&gt;GTP&lt;/font&gt;&lt;/b&gt;" style="text;html=1;strokeColor=#666666;fillColor=#f5f5f5;align=center;verticalAlign=middle;whiteSpace=wrap;rounded=1;fontColor=#333333;strokeWidth=2;" parent="1" vertex="1">
          <mxGeometry x="119" y="784" width="115" height="30" as="geometry" />
        </mxCell>
        <mxCell id="T7qprdBDYOJbE6tSfj1L-565" value="&lt;b&gt;&lt;font style=&quot;font-size: 14px;&quot;&gt;CLAM-SB&lt;/font&gt;&lt;/b&gt;" style="text;html=1;strokeColor=#666666;fillColor=#f5f5f5;align=center;verticalAlign=middle;whiteSpace=wrap;rounded=1;fontColor=#333333;strokeWidth=2;" parent="1" vertex="1">
          <mxGeometry x="319" y="784" width="115" height="30" as="geometry" />
        </mxCell>
        <mxCell id="T7qprdBDYOJbE6tSfj1L-566" value="&lt;b&gt;&lt;font style=&quot;font-size: 14px;&quot;&gt;CLAM-MB&lt;/font&gt;&lt;/b&gt;" style="text;html=1;strokeColor=#666666;fillColor=#f5f5f5;align=center;verticalAlign=middle;whiteSpace=wrap;rounded=1;fontColor=#333333;strokeWidth=2;" parent="1" vertex="1">
          <mxGeometry x="519" y="784" width="115" height="30" as="geometry" />
        </mxCell>
        <mxCell id="T7qprdBDYOJbE6tSfj1L-567" value="&lt;b&gt;&lt;font style=&quot;font-size: 14px;&quot;&gt;DSMIL&lt;/font&gt;&lt;/b&gt;" style="text;html=1;strokeColor=#666666;fillColor=#f5f5f5;align=center;verticalAlign=middle;whiteSpace=wrap;rounded=1;fontColor=#333333;strokeWidth=2;" parent="1" vertex="1">
          <mxGeometry x="718" y="784" width="115" height="30" as="geometry" />
        </mxCell>
        <mxCell id="T7qprdBDYOJbE6tSfj1L-568" value="&lt;b&gt;&lt;font style=&quot;font-size: 14px;&quot;&gt;MulGT&lt;/font&gt;&lt;/b&gt;" style="text;html=1;strokeColor=#666666;fillColor=#f5f5f5;align=center;verticalAlign=middle;whiteSpace=wrap;rounded=1;fontColor=#333333;strokeWidth=2;" parent="1" vertex="1">
          <mxGeometry x="119" y="1016" width="115" height="30" as="geometry" />
        </mxCell>
        <mxCell id="T7qprdBDYOJbE6tSfj1L-569" value="&lt;b&gt;&lt;font style=&quot;font-size: 14px;&quot;&gt;TransMIL&lt;/font&gt;&lt;/b&gt;" style="text;html=1;strokeColor=#666666;fillColor=#f5f5f5;align=center;verticalAlign=middle;whiteSpace=wrap;rounded=1;fontColor=#333333;strokeWidth=2;" parent="1" vertex="1">
          <mxGeometry x="319" y="1016" width="115" height="30" as="geometry" />
        </mxCell>
        <mxCell id="T7qprdBDYOJbE6tSfj1L-570" value="&lt;b&gt;&lt;font style=&quot;font-size: 14px;&quot;&gt;SETMIL&lt;/font&gt;&lt;/b&gt;" style="text;html=1;strokeColor=#666666;fillColor=#f5f5f5;align=center;verticalAlign=middle;whiteSpace=wrap;rounded=1;fontColor=#333333;strokeWidth=2;" parent="1" vertex="1">
          <mxGeometry x="519" y="1016" width="115" height="30" as="geometry" />
        </mxCell>
        <mxCell id="T7qprdBDYOJbE6tSfj1L-571" value="&lt;font style=&quot;font-size: 15px;&quot;&gt;F1-score : 0.8519&lt;/font&gt;" style="text;html=1;strokeColor=none;fillColor=none;align=center;verticalAlign=middle;whiteSpace=wrap;rounded=0;" parent="1" vertex="1">
          <mxGeometry x="266" y="710" width="143" height="30" as="geometry" />
        </mxCell>
        <mxCell id="T7qprdBDYOJbE6tSfj1L-572" value="&lt;font style=&quot;font-size: 15px;&quot;&gt;F1-score : &lt;b&gt;0.8574&lt;/b&gt;&lt;/font&gt;" style="text;html=1;strokeColor=none;fillColor=none;align=center;verticalAlign=middle;whiteSpace=wrap;rounded=0;" parent="1" vertex="1">
          <mxGeometry x="491" y="720" width="143" height="30" as="geometry" />
        </mxCell>
        <mxCell id="T7qprdBDYOJbE6tSfj1L-573" value="&lt;font style=&quot;font-size: 15px;&quot;&gt;F1-score : 0.7433&lt;/font&gt;" style="text;html=1;strokeColor=none;fillColor=none;align=center;verticalAlign=middle;whiteSpace=wrap;rounded=0;" parent="1" vertex="1">
          <mxGeometry x="691.5" y="720" width="143" height="30" as="geometry" />
        </mxCell>
        <mxCell id="T7qprdBDYOJbE6tSfj1L-574" value="&lt;font style=&quot;font-size: 15px;&quot;&gt;F1-score : 0.8522&lt;/font&gt;" style="text;html=1;strokeColor=none;fillColor=none;align=center;verticalAlign=middle;whiteSpace=wrap;rounded=0;" parent="1" vertex="1">
          <mxGeometry x="80" y="750" width="143" height="30" as="geometry" />
        </mxCell>
        <mxCell id="T7qprdBDYOJbE6tSfj1L-575" value="&lt;font style=&quot;font-size: 15px;&quot;&gt;F1-score : 0.8467&lt;/font&gt;" style="text;html=1;strokeColor=none;fillColor=none;align=center;verticalAlign=middle;whiteSpace=wrap;rounded=0;" parent="1" vertex="1">
          <mxGeometry x="280" y="750" width="143" height="30" as="geometry" />
        </mxCell>
        <mxCell id="T7qprdBDYOJbE6tSfj1L-576" value="&lt;font style=&quot;font-size: 15px;&quot;&gt;F1-score : 0.7970&lt;/font&gt;" style="text;html=1;strokeColor=none;fillColor=none;align=center;verticalAlign=middle;whiteSpace=wrap;rounded=0;" parent="1" vertex="1">
          <mxGeometry x="480" y="751" width="143" height="30" as="geometry" />
        </mxCell>
        <mxCell id="T7qprdBDYOJbE6tSfj1L-577" value="&lt;font style=&quot;font-size: 15px;&quot;&gt;F1-score : 0.8134&lt;/font&gt;" style="text;html=1;strokeColor=none;fillColor=none;align=center;verticalAlign=middle;whiteSpace=wrap;rounded=0;" parent="1" vertex="1">
          <mxGeometry x="66" y="710" width="143" height="30" as="geometry" />
        </mxCell>
      </root>
    </mxGraphModel>
  </diagram>
</mxfile>
